<svg xmlns="http://www.w3.org/2000/svg" xmlns:xlink="http://www.w3.org/1999/xlink" id="body_2" preserveAspectRatio="xMinYMin meet" viewBox="0 0 720 1040"><defs><clipPath id="1"><path id="" clip-rule="evenodd" transform="matrix(1 0 0 1 0 0)" d="M0 780L0 0L0 0L540 0L540 0L540 780L540 780L0 780z" /></clipPath><clipPath id="2"><path id="" clip-rule="evenodd" transform="matrix(1 0 0 1 0 0)" d="M0 779.9998L540 779.9998L540 779.9998L540 -0.0001831055L540 -0.0001831055L0 -0.0001831055z" /></clipPath><clipPath id="3"><path id="" clip-rule="evenodd" transform="matrix(1 0 0 1 0 0)" d="M8.047E-06 780L540 780L540 780L540 0L540 0L8.047E-06 0z" /></clipPath><clipPath id="4"><path id="" clip-rule="evenodd" transform="matrix(1 0 0 1 0 0)" d="M8.047E-06 780L540 780L540 780L540 0L540 0L8.047E-06 0z" /></clipPath><clipPath id="5"><path id="" clip-rule="evenodd" transform="matrix(1 0 0 1 0 0)" d="M8.047E-06 780L540 780L540 780L540 0L540 0L8.047E-06 0z" /></clipPath><clipPath id="6"><path id="" clip-rule="evenodd" transform="matrix(1 0 0 1 0 0)" d="M8.047E-06 780L540 780L540 780L540 0L540 0L8.047E-06 0z" /></clipPath><clipPath id="7"><path id="" clip-rule="evenodd" transform="matrix(1 0 0 1 0 0)" d="M8.047E-06 780L540 780L540 780L540 0L540 0L8.047E-06 0z" /></clipPath><clipPath id="8"><path id="" clip-rule="evenodd" transform="matrix(1 0 0 1 0 0)" d="M8.047E-06 780L540 780L540 780L540 0L540 0L8.047E-06 0z" /></clipPath><clipPath id="9"><path id="" clip-rule="evenodd" transform="matrix(1 0 0 1 0 0)" d="M8.047E-06 780L540 780L540 780L540 0L540 0L8.047E-06 0z" /></clipPath><clipPath id="10"><path id="" clip-rule="evenodd" transform="matrix(1 0 0 1 0 0)" d="M8.047E-06 780L540 780L540 780L540 0L540 0L8.047E-06 0z" /></clipPath><clipPath id="11"><path id="" clip-rule="evenodd" transform="matrix(1 0 0 1 0 0)" d="M8.047E-06 780L540 780L540 780L540 0L540 0L8.047E-06 0z" /></clipPath><clipPath id="12"><path id="" clip-rule="evenodd" transform="matrix(1 0 0 1 0 0)" d="M8.047E-06 780L540 780L540 780L540 0L540 0L8.047E-06 0z" /></clipPath><clipPath id="13"><path id="" clip-rule="evenodd" transform="matrix(1 0 0 1 0 0)" d="M8.047E-06 780L540 780L540 780L540 0L540 0L8.047E-06 0z" /></clipPath><clipPath id="14"><path id="" clip-rule="evenodd" transform="matrix(1 0 0 1 0 0)" d="M8.047E-06 780L540 780L540 780L540 0L540 0L8.047E-06 0z" /></clipPath><clipPath id="15"><path id="" clip-rule="evenodd" transform="matrix(1 0 0 1 0 0)" d="M8.047E-06 780L540 780L540 780L540 0L540 0L8.047E-06 0z" /></clipPath><clipPath id="16"><path id="" clip-rule="evenodd" transform="matrix(1 0 0 1 0 0)" d="M8.047E-06 780L540 780L540 780L540 0L540 0L8.047E-06 0z" /></clipPath><clipPath id="17"><path id="" clip-rule="evenodd" transform="matrix(1 0 0 1 0 0)" d="M8.047E-06 780L540 780L540 780L540 0L540 0L8.047E-06 0z" /></clipPath><clipPath id="18"><path id="" clip-rule="evenodd" transform="matrix(1 0 0 1 0 0)" d="M8.047E-06 780L540 780L540 780L540 0L540 0L8.047E-06 0z" /></clipPath><clipPath id="19"><path id="" clip-rule="evenodd" transform="matrix(1 0 0 1 0 0)" d="M8.047E-06 780L540 780L540 780L540 0L540 0L8.047E-06 0z" /></clipPath><clipPath id="20"><path id="" clip-rule="evenodd" transform="matrix(1 0 0 1 0 0)" d="M8.047E-06 780L540 780L540 780L540 0L540 0L8.047E-06 0z" /></clipPath><clipPath id="21"><path id="" clip-rule="evenodd" transform="matrix(1 0 0 1 0 0)" d="M8.047E-06 780L540 780L540 780L540 0L540 0L8.047E-06 0z" /></clipPath><clipPath id="22"><path id="" clip-rule="evenodd" transform="matrix(1 0 0 1 0 0)" d="M8.047E-06 780L540 780L540 780L540 0L540 0L8.047E-06 0z" /></clipPath><clipPath id="23"><path id="" clip-rule="evenodd" transform="matrix(1 0 0 1 0 0)" d="M8.047E-06 780L540 780L540 780L540 0L540 0L8.047E-06 0z" /></clipPath><clipPath id="24"><path id="" clip-rule="evenodd" transform="matrix(1 0 0 1 0 0)" d="M8.047E-06 780L540 780L540 780L540 0L540 0L8.047E-06 0z" /></clipPath><clipPath id="25"><path id="" clip-rule="evenodd" transform="matrix(1 0 0 1 0 0)" d="M8.047E-06 780L540 780L540 780L540 0L540 0L8.047E-06 0z" /></clipPath><clipPath id="26"><path id="" clip-rule="evenodd" transform="matrix(1 0 0 1 0 0)" d="M8.047E-06 780L540 780L540 780L540 0L540 0L8.047E-06 0z" /></clipPath><clipPath id="27"><path id="" clip-rule="evenodd" transform="matrix(1 0 0 1 0 0)" d="M8.047E-06 780L540 780L540 780L540 0L540 0L8.047E-06 0z" /></clipPath><clipPath id="28"><path id="" clip-rule="evenodd" transform="matrix(1 0 0 1 0 0)" d="M8.047E-06 780L540 780L540 780L540 0L540 0L8.047E-06 0z" /></clipPath><clipPath id="29"><path id="" clip-rule="evenodd" transform="matrix(1 0 0 1 0 0)" d="M8.047E-06 780L540 780L540 780L540 0L540 0L8.047E-06 0z" /></clipPath><clipPath id="30"><path id="" clip-rule="evenodd" transform="matrix(1 0 0 1 0 0)" d="M8.047E-06 780L540 780L540 780L540 0L540 0L8.047E-06 0z" /></clipPath><clipPath id="31"><path id="" clip-rule="evenodd" transform="matrix(1 0 0 1 0 0)" d="M8.047E-06 780L540 780L540 780L540 0L540 0L8.047E-06 0z" /></clipPath><clipPath id="32"><path id="" clip-rule="evenodd" transform="matrix(1 0 0 1 0 0)" d="M8.047E-06 780L540 780L540 780L540 0L540 0L8.047E-06 0z" /></clipPath><clipPath id="33"><path id="" clip-rule="evenodd" transform="matrix(1 0 0 1 0 0)" d="M8.047E-06 780L540 780L540 780L540 0L540 0L8.047E-06 0z" /></clipPath><clipPath id="34"><path id="" clip-rule="evenodd" transform="matrix(1 0 0 1 0 0)" d="M8.047E-06 780L540 780L540 780L540 0L540 0L8.047E-06 0z" /></clipPath><clipPath id="35"><path id="" clip-rule="evenodd" transform="matrix(1 0 0 1 0 0)" d="M8.047E-06 780L540 780L540 780L540 0L540 0L8.047E-06 0z" /></clipPath><clipPath id="36"><path id="" clip-rule="evenodd" transform="matrix(1 0 0 1 0 0)" d="M8.047E-06 780L540 780L540 780L540 0L540 0L8.047E-06 0z" /></clipPath><clipPath id="37"><path id="" clip-rule="evenodd" transform="matrix(1 0 0 1 0 0)" d="M8.047E-06 780L540 780L540 780L540 0L540 0L8.047E-06 0z" /></clipPath><clipPath id="38"><path id="" clip-rule="evenodd" transform="matrix(1 0 0 1 0 0)" d="M8.047E-06 780L540 780L540 780L540 0L540 0L8.047E-06 0z" /></clipPath><clipPath id="39"><path id="" clip-rule="evenodd" transform="matrix(1 0 0 1 0 0)" d="M8.047E-06 780L540 780L540 780L540 0L540 0L8.047E-06 0z" /></clipPath><clipPath id="40"><path id="" clip-rule="evenodd" transform="matrix(1 0 0 1 0 0)" d="M8.047E-06 780L540 780L540 780L540 0L540 0L8.047E-06 0z" /></clipPath><clipPath id="41"><path id="" clip-rule="evenodd" transform="matrix(1 0 0 1 0 0)" d="M8.047E-06 780L540 780L540 780L540 0L540 0L8.047E-06 0z" /></clipPath><clipPath id="42"><path id="" clip-rule="evenodd" transform="matrix(1 0 0 1 0 0)" d="M8.047E-06 780L540 780L540 780L540 0L540 0L8.047E-06 0z" /></clipPath><clipPath id="43"><path id="" clip-rule="evenodd" transform="matrix(1 0 0 1 0 0)" d="M8.047E-06 780L540 780L540 780L540 0L540 0L8.047E-06 0z" /></clipPath><clipPath id="44"><path id="" clip-rule="evenodd" transform="matrix(1 0 0 1 0 0)" d="M8.047E-06 780L540 780L540 780L540 0L540 0L8.047E-06 0z" /></clipPath><clipPath id="45"><path id="" clip-rule="evenodd" transform="matrix(1 0 0 1 0 0)" d="M8.047E-06 780L540 780L540 780L540 0L540 0L8.047E-06 0z" /></clipPath><clipPath id="46"><path id="" clip-rule="evenodd" transform="matrix(1 0 0 1 0 0)" d="M8.047E-06 780L540 780L540 780L540 0L540 0L8.047E-06 0z" /></clipPath><clipPath id="47"><path id="" clip-rule="evenodd" transform="matrix(1 0 0 1 0 0)" d="M8.047E-06 780L540 780L540 780L540 0L540 0L8.047E-06 0z" /></clipPath><clipPath id="48"><path id="" clip-rule="evenodd" transform="matrix(1 0 0 1 0 0)" d="M8.047E-06 780L540 780L540 780L540 0L540 0L8.047E-06 0z" /></clipPath><clipPath id="49"><path id="" clip-rule="evenodd" transform="matrix(1 0 0 1 0 0)" d="M8.047E-06 780L540 780L540 780L540 0L540 0L8.047E-06 0z" /></clipPath><clipPath id="50"><path id="" clip-rule="evenodd" transform="matrix(1 0 0 1 0 0)" d="M8.047E-06 780L540 780L540 780L540 0L540 0L8.047E-06 0z" /></clipPath><clipPath id="51"><path id="" clip-rule="evenodd" transform="matrix(1 0 0 1 0 0)" d="M8.047E-06 780L540 780L540 780L540 0L540 0L8.047E-06 0z" /></clipPath><clipPath id="52"><path id="" clip-rule="evenodd" transform="matrix(1 0 0 1 0 0)" d="M8.047E-06 780L540 780L540 780L540 0L540 0L8.047E-06 0z" /></clipPath><clipPath id="53"><path id="" clip-rule="evenodd" transform="matrix(1 0 0 1 0 0)" d="M8.047E-06 780L540 780L540 780L540 0L540 0L8.047E-06 0z" /></clipPath><clipPath id="54"><path id="" clip-rule="evenodd" transform="matrix(1 0 0 1 0 0)" d="M8.047E-06 780L540 780L540 780L540 0L540 0L8.047E-06 0z" /></clipPath><clipPath id="55"><path id="" clip-rule="evenodd" transform="matrix(1 0 0 1 0 0)" d="M8.047E-06 780L540 780L540 780L540 0L540 0L8.047E-06 0z" /></clipPath><clipPath id="56"><path id="" clip-rule="evenodd" transform="matrix(1 0 0 1 0 0)" d="M8.047E-06 780L540 780L540 780L540 0L540 0L8.047E-06 0z" /></clipPath><clipPath id="57"><path id="" clip-rule="evenodd" transform="matrix(1 0 0 1 0 0)" d="M8.047E-06 780L540 780L540 780L540 0L540 0L8.047E-06 0z" /></clipPath><clipPath id="58"><path id="" clip-rule="evenodd" transform="matrix(1 0 0 1 0 0)" d="M8.047E-06 780L540 780L540 780L540 0L540 0L8.047E-06 0z" /></clipPath><clipPath id="59"><path id="" clip-rule="evenodd" transform="matrix(1 0 0 1 0 0)" d="M8.047E-06 780L540 780L540 780L540 0L540 0L8.047E-06 0z" /></clipPath><clipPath id="60"><path id="" clip-rule="evenodd" transform="matrix(1 0 0 1 0 0)" d="M8.047E-06 780L540 780L540 780L540 0L540 0L8.047E-06 0z" /></clipPath><clipPath id="61"><path id="" clip-rule="evenodd" transform="matrix(1 0 0 1 0 0)" d="M4.77E-07 779.9996L540 779.9996L540 779.9996L540 -0.0003662109L540 -0.0003662109L4.77E-07 -0.0003662109z" /></clipPath><clipPath id="62"><path id="" clip-rule="evenodd" transform="matrix(1 0 0 1 0 0)" d="M0 779.9997L540 779.9997L540 779.9997L540 -0.0003051758L540 -0.0003051758L0 -0.0003051758z" /></clipPath><clipPath id="63"><path id="" clip-rule="evenodd" transform="matrix(1 0 0 1 0 0)" d="M12.36 477.84L524.8798 477.84L524.8798 477.84L524.8798 142.6741L524.8798 142.6741L12.36 142.6741z" /></clipPath><clipPath id="64"><path id="" clip-rule="evenodd" transform="matrix(1 0 0 1 0 0)" d="M-3.0518E-05 0L540 0L540 0L540 779.9996L540 779.9996L-6.1035E-05 779.9997" /></clipPath><clipPath id="65"><path id="" clip-rule="evenodd" transform="matrix(1 0 0 1 0 0)" d="M-3.0518E-05 0L540 0L540 0L540 779.9996L540 779.9996L-6.1035E-05 779.9997" /></clipPath><clipPath id="66"><path id="" clip-rule="evenodd" transform="matrix(1 0 0 1 0 0)" d="M-6.1035E-05 0L540 0L540 0L540 779.9998L540 779.9998L-6.1035E-05 779.9999" /></clipPath><clipPath id="67"><path id="" clip-rule="evenodd" transform="matrix(1 0 0 1 0 0)" d="M-3.0518E-05 0L540 0L540 0L540 779.9998L540 779.9998L-3.0518E-05 779.9999" /></clipPath><clipPath id="68"><path id="" clip-rule="evenodd" transform="matrix(1 0 0 1 0 0)" d="M8.047E-06 780L540 780L540 780L540 0L540 0L8.047E-06 0z" /></clipPath><clipPath id="69"><path id="" clip-rule="evenodd" transform="matrix(1 0 0 1 0 0)" d="M-7.629E-06 0L540 0L540 0L540 779.9998L540 779.9998L-2.2888E-05 779.9999" /></clipPath><clipPath id="70"><path id="" clip-rule="evenodd" transform="matrix(1 0 0 1 0 0)" d="M-7.629E-06 0L540 0L540 0L540 779.9998L540 779.9998L-2.2888E-05 779.9999" /></clipPath><clipPath id="71"><path id="" clip-rule="evenodd" transform="matrix(1 0 0 1 0 0)" d="M-7.629E-06 0L540 0L540 0L540 779.9998L540 779.9998L-5.3406E-05 779.9999" /></clipPath><clipPath id="72"><path id="" clip-rule="evenodd" transform="matrix(1 0 0 1 0 0)" d="M8.047E-06 780L540 780L540 780L540 0L540 0L8.047E-06 0z" /></clipPath><clipPath id="73"><path id="" clip-rule="evenodd" transform="matrix(1 0 0 1 0 0)" d="M8.047E-06 780L540 780L540 780L540 0L540 0L8.047E-06 0z" /></clipPath><clipPath id="74"><path id="" clip-rule="evenodd" transform="matrix(1 0 0 1 0 0)" d="M8.047E-06 780L540 780L540 780L540 0L540 0L8.047E-06 0z" /></clipPath><clipPath id="75"><path id="" clip-rule="evenodd" transform="matrix(1 0 0 1 0 0)" d="M8.047E-06 780L540 780L540 780L540 0L540 0L8.047E-06 0z" /></clipPath><clipPath id="76"><path id="" clip-rule="evenodd" transform="matrix(1 0 0 1 0 0)" d="M-3.0518E-05 0L540 0L540 0L540 779.9998L540 779.9998L-3.0518E-05 779.9999" /></clipPath><clipPath id="77"><path id="" clip-rule="evenodd" transform="matrix(1 0 0 1 0 0)" d="M-3.0518E-05 0L540 0L540 0L540 779.9998L540 779.9998L-3.0518E-05 779.9999" /></clipPath><clipPath id="78"><path id="" clip-rule="evenodd" transform="matrix(1 0 0 1 0 0)" d="M-3.0518E-05 0L540 0L540 0L540 779.9998L540 779.9998L-3.0518E-05 779.9999" /></clipPath><clipPath id="79"><path id="" clip-rule="evenodd" transform="matrix(1 0 0 1 0 0)" d="M-6.1035E-05 0L540 0L540 0L540 779.9998L540 779.9998L-4.5776E-05 779.9999" /></clipPath><clipPath id="80"><path id="" clip-rule="evenodd" transform="matrix(1 0 0 1 0 0)" d="M-3.0518E-05 0L540 0L540 0L540 779.9998L540 779.9998L-3.0518E-05 779.9999" /></clipPath><clipPath id="81"><path id="" clip-rule="evenodd" transform="matrix(1 0 0 1 0 0)" d="M-3.0518E-05 0L540 0L540 0L540 779.9998L540 779.9998L-3.0518E-05 779.9999" /></clipPath><clipPath id="82"><path id="" clip-rule="evenodd" transform="matrix(1 0 0 1 0 0)" d="M8.047E-06 780L540 780L540 780L540 0L540 0L8.047E-06 0z" /></clipPath><clipPath id="83"><path id="" clip-rule="evenodd" transform="matrix(1 0 0 1 0 0)" d="M8.047E-06 780L540 780L540 780L540 0L540 0L8.047E-06 0z" /></clipPath><clipPath id="84"><path id="" clip-rule="evenodd" transform="matrix(1 0 0 1 0 0)" d="M8.047E-06 780L540 780L540 780L540 0L540 0L8.047E-06 0z" /></clipPath><clipPath id="85"><path id="" clip-rule="evenodd" transform="matrix(1 0 0 1 0 0)" d="M8.047E-06 780L540 780L540 780L540 0L540 0L8.047E-06 0z" /></clipPath><clipPath id="86"><path id="" clip-rule="evenodd" transform="matrix(1 0 0 1 0 0)" d="M8.047E-06 780L540 780L540 780L540 0L540 0L8.047E-06 0z" /></clipPath><clipPath id="87"><path id="" clip-rule="evenodd" transform="matrix(1 0 0 1 0 0)" d="M8.047E-06 780L540 780L540 780L540 0L540 0L8.047E-06 0z" /></clipPath><clipPath id="88"><path id="" clip-rule="evenodd" transform="matrix(1 0 0 1 0 0)" d="M8.047E-06 780L540 780L540 780L540 0L540 0L8.047E-06 0z" /></clipPath><clipPath id="89"><path id="" clip-rule="evenodd" transform="matrix(1 0 0 1 0 0)" d="M8.047E-06 780L540 780L540 780L540 0L540 0L8.047E-06 0z" /></clipPath><clipPath id="90"><path id="" clip-rule="evenodd" transform="matrix(1 0 0 1 0 0)" d="M8.047E-06 780L540 780L540 780L540 0L540 0L8.047E-06 0z" /></clipPath><clipPath id="91"><path id="" clip-rule="evenodd" transform="matrix(1 0 0 1 0 0)" d="M8.047E-06 780L540 780L540 780L540 0L540 0L8.047E-06 0z" /></clipPath><clipPath id="92"><path id="" clip-rule="evenodd" transform="matrix(1 0 0 1 0 0)" d="M8.047E-06 780L540 780L540 780L540 0L540 0L8.047E-06 0z" /></clipPath><clipPath id="93"><path id="" clip-rule="evenodd" transform="matrix(1 0 0 1 0 0)" d="M8.047E-06 780L540 780L540 780L540 0L540 0L8.047E-06 0z" /></clipPath><clipPath id="94"><path id="" clip-rule="evenodd" transform="matrix(1 0 0 1 0 0)" d="M8.047E-06 780L540 780L540 780L540 0L540 0L8.047E-06 0z" /></clipPath></defs><g transform="matrix(1.333333 0 0 1.333333 0 0)"><g clip-path="url(#1)"><g clip-path="url(#2)"><path id="1" transform="matrix(1 0 0 -1 0 780)" d="M0 6.1035E-05L540 6.1035E-05L540 6.1035E-05L540 780.0001L540 780.0001L0 780.0001z" stroke="none" fill="#002060" fill-rule="evenodd" /></g><path id="2" transform="matrix(1 0 0 -1 0 780)" d="M12.316 195.29L54.357 195.29L54.357 195.29L54.357 266.31L54.357 266.31L12.316 266.31z" stroke="none" fill="#4472C4" fill-rule="evenodd" /><path id="3" transform="matrix(1 0 0 -1 0 780)" d="M54.357 195.29L132.771 195.29L132.771 195.29L132.771 266.31L132.771 266.31L54.357 266.31z" stroke="none" fill="#4472C4" fill-rule="evenodd" /><path id="4" transform="matrix(1 0 0 -1 0 780)" d="M132.77 195.29L211.184 195.29L211.184 195.29L211.184 266.31L211.184 266.31L132.77 266.31z" stroke="none" fill="#4472C4" fill-rule="evenodd" /><path id="5" transform="matrix(1 0 0 -1 0 780)" d="M211.19 195.29L289.604 195.29L289.604 195.29L289.604 266.31L289.604 266.31L211.19 266.31z" stroke="none" fill="#4472C4" fill-rule="evenodd" /><path id="6" transform="matrix(1 0 0 -1 0 780)" d="M289.6 195.29L368.014 195.29L368.014 195.29L368.014 266.31L368.014 266.31L289.6 266.31z" stroke="none" fill="#4472C4" fill-rule="evenodd" /><path id="7" transform="matrix(1 0 0 -1 0 780)" d="M368.01 195.29L446.424 195.29L446.424 195.29L446.424 266.31L446.424 266.31L368.01 266.31z" stroke="none" fill="#4472C4" fill-rule="evenodd" /><path id="8" transform="matrix(1 0 0 -1 0 780)" d="M446.43 195.29L524.844 195.29L524.844 195.29L524.844 266.31L524.844 266.31L446.43 266.31z" stroke="none" fill="#4472C4" fill-rule="evenodd" /><path id="9" transform="matrix(1 0 0 -1 0 780)" d="M12.316 148.49L54.357 148.49L54.357 148.49L54.357 195.29L54.357 195.29L12.316 195.29z" stroke="none" fill="#CFD5EA" fill-rule="evenodd" /><path id="10" transform="matrix(1 0 0 -1 0 780)" d="M54.357 148.49L132.771 148.49L132.771 148.49L132.771 195.29L132.771 195.29L54.357 195.29z" stroke="none" fill="#CFD5EA" fill-rule="evenodd" /><path id="11" transform="matrix(1 0 0 -1 0 780)" d="M132.77 148.49L211.184 148.49L211.184 148.49L211.184 195.29L211.184 195.29L132.77 195.29z" stroke="none" fill="#CFD5EA" fill-rule="evenodd" /><path id="12" transform="matrix(1 0 0 -1 0 780)" d="M211.19 148.49L289.604 148.49L289.604 148.49L289.604 195.29L289.604 195.29L211.19 195.29z" stroke="none" fill="#CFD5EA" fill-rule="evenodd" /><path id="13" transform="matrix(1 0 0 -1 0 780)" d="M289.6 148.49L368.014 148.49L368.014 148.49L368.014 195.29L368.014 195.29L289.6 195.29z" stroke="none" fill="#CFD5EA" fill-rule="evenodd" /><path id="14" transform="matrix(1 0 0 -1 0 780)" d="M368.01 148.49L446.424 148.49L446.424 148.49L446.424 195.29L446.424 195.29L368.01 195.29z" stroke="none" fill="#CFD5EA" fill-rule="evenodd" /><path id="15" transform="matrix(1 0 0 -1 0 780)" d="M446.43 148.49L524.844 148.49L524.844 148.49L524.844 195.29L524.844 195.29L446.43 195.29z" stroke="none" fill="#CFD5EA" fill-rule="evenodd" /><path id="16" transform="matrix(1 0 0 -1 0 780)" d="M12.316 101.69L54.357 101.69L54.357 101.69L54.357 148.49L54.357 148.49L12.316 148.49z" stroke="none" fill="#E9EBF5" fill-rule="evenodd" /><path id="17" transform="matrix(1 0 0 -1 0 780)" d="M54.357 101.69L132.771 101.69L132.771 101.69L132.771 148.49L132.771 148.49L54.357 148.49z" stroke="none" fill="#E9EBF5" fill-rule="evenodd" /><path id="18" transform="matrix(1 0 0 -1 0 780)" d="M132.77 101.69L211.184 101.69L211.184 101.69L211.184 148.49L211.184 148.49L132.77 148.49z" stroke="none" fill="#E9EBF5" fill-rule="evenodd" /><path id="19" transform="matrix(1 0 0 -1 0 780)" d="M211.19 101.69L289.604 101.69L289.604 101.69L289.604 148.49L289.604 148.49L211.19 148.49z" stroke="none" fill="#E9EBF5" fill-rule="evenodd" /><path id="20" transform="matrix(1 0 0 -1 0 780)" d="M289.6 101.69L368.014 101.69L368.014 101.69L368.014 148.49L368.014 148.49L289.6 148.49z" stroke="none" fill="#E9EBF5" fill-rule="evenodd" /><path id="21" transform="matrix(1 0 0 -1 0 780)" d="M368.01 101.69L446.424 101.69L446.424 101.69L446.424 148.49L446.424 148.49L368.01 148.49z" stroke="none" fill="#E9EBF5" fill-rule="evenodd" /><path id="22" transform="matrix(1 0 0 -1 0 780)" d="M446.43 101.69L524.844 101.69L524.844 101.69L524.844 148.49L524.844 148.49L446.43 148.49z" stroke="none" fill="#E9EBF5" fill-rule="evenodd" /><path id="23" transform="matrix(1 0 0 -1 0 780)" d="M12.316 54.886L54.357 54.886L54.357 54.886L54.357 101.686L54.357 101.686L12.316 101.686z" stroke="none" fill="#CFD5EA" fill-rule="evenodd" /><path id="24" transform="matrix(1 0 0 -1 0 780)" d="M54.357 54.886L132.771 54.886L132.771 54.886L132.771 101.686L132.771 101.686L54.357 101.686z" stroke="none" fill="#CFD5EA" fill-rule="evenodd" /><path id="25" transform="matrix(1 0 0 -1 0 780)" d="M132.77 54.886L211.184 54.886L211.184 54.886L211.184 101.686L211.184 101.686L132.77 101.686z" stroke="none" fill="#CFD5EA" fill-rule="evenodd" /><path id="26" transform="matrix(1 0 0 -1 0 780)" d="M211.19 54.886L289.604 54.886L289.604 54.886L289.604 101.686L289.604 101.686L211.19 101.686z" stroke="none" fill="#CFD5EA" fill-rule="evenodd" /><path id="27" transform="matrix(1 0 0 -1 0 780)" d="M289.6 54.886L368.014 54.886L368.014 54.886L368.014 101.686L368.014 101.686L289.6 101.686z" stroke="none" fill="#CFD5EA" fill-rule="evenodd" /><path id="28" transform="matrix(1 0 0 -1 0 780)" d="M368.01 54.886L446.424 54.886L446.424 54.886L446.424 101.686L446.424 101.686L368.01 101.686z" stroke="none" fill="#CFD5EA" fill-rule="evenodd" /><path id="29" transform="matrix(1 0 0 -1 0 780)" d="M446.43 54.886L524.844 54.886L524.844 54.886L524.844 101.686L524.844 101.686L446.43 101.686z" stroke="none" fill="#CFD5EA" fill-rule="evenodd" /><path id="30" transform="matrix(1 0 0 -1 0 780)" d="M54.357 266.81L54.357 54.386" stroke="#FFFFFF" stroke-width="1" fill="none" /><path id="31" transform="matrix(1 0 0 -1 0 780)" d="M132.77 266.81L132.77 54.386" stroke="#FFFFFF" stroke-width="1" fill="none" /><path id="32" transform="matrix(1 0 0 -1 0 780)" d="M211.19 266.81L211.19 54.386" stroke="#FFFFFF" stroke-width="1" fill="none" /><path id="33" transform="matrix(1 0 0 -1 0 780)" d="M289.6 266.81L289.6 54.386" stroke="#FFFFFF" stroke-width="1" fill="none" /><path id="34" transform="matrix(1 0 0 -1 0 780)" d="M368.01 266.81L368.01 54.386" stroke="#FFFFFF" stroke-width="1" fill="none" /><path id="35" transform="matrix(1 0 0 -1 0 780)" d="M446.43 266.81L446.43 54.386" stroke="#FFFFFF" stroke-width="1" fill="none" /><path id="36" transform="matrix(1 0 0 -1 0 780)" d="M11.816 195.29L525.34 195.29" stroke="#FFFFFF" stroke-width="3" fill="none" /><path id="37" transform="matrix(1 0 0 -1 0 780)" d="M11.816 148.49L525.34 148.49" stroke="#FFFFFF" stroke-width="1" fill="none" /><path id="38" transform="matrix(1 0 0 -1 0 780)" d="M11.816 101.69L525.34 101.69" stroke="#FFFFFF" stroke-width="1" fill="none" /><path id="39" transform="matrix(1 0 0 -1 0 780)" d="M12.316 266.81L12.316 54.386" stroke="#FFFFFF" stroke-width="1" fill="none" /><path id="40" transform="matrix(1 0 0 -1 0 780)" d="M524.84 266.81L524.84 54.386" stroke="#FFFFFF" stroke-width="1" fill="none" /><path id="41" transform="matrix(1 0 0 -1 0 780)" d="M11.816 266.31L525.34 266.31" stroke="#FFFFFF" stroke-width="1" fill="none" /><path id="42" transform="matrix(1 0 0 -1 0 780)" d="M11.816 54.886L525.34 54.886" stroke="#FFFFFF" stroke-width="1" fill="none" /><g clip-path="url(#3)"></g><g clip-path="url(#4)"></g><g clip-path="url(#5)"></g><g clip-path="url(#6)"></g><g clip-path="url(#7)"></g><g clip-path="url(#8)"></g><g clip-path="url(#9)"></g><g clip-path="url(#10)"></g><g clip-path="url(#11)"></g><g clip-path="url(#12)"></g><g clip-path="url(#13)"></g><g clip-path="url(#14)"></g><g clip-path="url(#15)"></g><g clip-path="url(#16)"></g><g clip-path="url(#17)"></g><g clip-path="url(#18)"></g><g clip-path="url(#19)"></g><g clip-path="url(#20)"></g><g clip-path="url(#21)"></g><g clip-path="url(#22)"></g><g clip-path="url(#23)"></g><g clip-path="url(#24)"></g><g clip-path="url(#25)"></g><g clip-path="url(#26)"></g><g clip-path="url(#27)"></g><g clip-path="url(#28)"></g><g clip-path="url(#29)"></g><g clip-path="url(#30)"></g><g clip-path="url(#31)"></g><g clip-path="url(#32)"></g><g clip-path="url(#33)"></g><g clip-path="url(#34)"></g><g clip-path="url(#35)"></g><g clip-path="url(#36)"></g><g clip-path="url(#37)"></g><g clip-path="url(#38)"></g><g clip-path="url(#39)"></g><g clip-path="url(#40)"></g><g clip-path="url(#41)"></g><g clip-path="url(#42)"></g><g clip-path="url(#43)"></g><g clip-path="url(#44)"></g><g clip-path="url(#45)"></g><g clip-path="url(#46)"></g><g clip-path="url(#47)"></g><g clip-path="url(#48)"></g><g clip-path="url(#49)"></g><g clip-path="url(#50)"></g><g clip-path="url(#51)"></g><g clip-path="url(#52)"></g><g clip-path="url(#53)"></g><g clip-path="url(#54)"></g><g clip-path="url(#55)"></g><g clip-path="url(#56)"></g><g clip-path="url(#57)"></g><g clip-path="url(#58)"></g><g clip-path="url(#59)"></g><g clip-path="url(#60)"></g><g clip-path="url(#61)"><g transform="matrix(0.7193443 0 0 0.7185185 7.32 137.64)"><g transform="matrix(1 0 0 1 0 0)"><image x="0" y="0" xlink:href="img_02.png" width="732" height="486" /></g></g></g><g clip-path="url(#62)"><g clip-path="url(#63)"><g transform="matrix(0.6708264 3.552837E-08 1.630183E-09 0.6323751 12.36 142.6754)"><g transform="matrix(1 0 0 1 0 0)"><image x="0" y="0" xlink:href="img_03.png" width="763" height="530" /></g></g></g></g><path id="185" transform="matrix(1 0 0 -1 0 780)" d="M10.86 300.66L526.38 300.66L526.38 300.66L526.38 638.82L526.38 638.82L10.86 638.82z" stroke="#000000" stroke-width="3" stroke-linecap="square" fill="none" /><path id="186" transform="matrix(1 0 0 -1 0 780)" d="M204.35 467.85L204.42 484.62L190.96 474.62zM87.327 269.65C 85.458 265.95 86.939 261.44 90.636 259.57C 94.332 257.7 98.844 259.18 100.71 262.88C 102.58 266.58 101.1 271.09 97.404 272.96C 93.708 274.83 89.196 273.34 87.327 269.65zM95.359 265.59L199.67 471.9L196.99 473.25L92.681 266.94z" stroke="none" fill="#000000" fill-rule="nonzero" /><path id="187" transform="matrix(1 0 0 -1 0 780)" d="M141.01 461.37L140.82 478.14L154.35 468.23zM256.8 269.14C 258.7 265.46 257.25 260.93 253.57 259.04C 249.88 257.14 245.36 258.59 243.47 262.28C 241.57 265.96 243.02 270.48 246.7 272.38C 250.39 274.27 254.91 272.82 256.8 269.14zM248.8 265.02L145.66 465.45L148.33 466.82L251.47 266.39z" stroke="none" fill="#000000" fill-rule="nonzero" /><path id="188" transform="matrix(1 0 0 -1 0 780)" d="M362.16 455.86L367.06 471.9L351.29 466.19zM167.3 272.53C 164.45 269.53 164.57 264.78 167.57 261.93C 170.58 259.08 175.32 259.2 178.18 262.2C 181.03 265.21 180.91 269.95 177.91 272.81C 174.9 275.66 170.16 275.54 167.3 272.53zM173.83 266.34L358.85 461.08L356.67 463.15L171.65 268.4z" stroke="none" fill="#000000" fill-rule="nonzero" /><path id="189" transform="matrix(1 0 0 -1 0 780)" d="M291.97 433.02L286.14 448.74L302.22 443.97zM486.92 271.2C 489.94 268.37 490.1 263.62 487.27 260.6C 484.44 257.57 479.7 257.41 476.67 260.24C 473.65 263.07 473.49 267.82 476.32 270.84C 479.15 273.87 483.89 274.03 486.92 271.2zM480.77 264.63L294.97 438.42L297.02 440.61L482.82 266.82z" stroke="none" fill="#000000" fill-rule="nonzero" /><path id="190" transform="matrix(1 0 0 -1 0 780)" d="M197.61 401.31L193.38 417.54L208.9 411.19zM331.37 271.15C 334.1 268.03 333.78 263.29 330.67 260.57C 327.55 257.84 322.81 258.16 320.08 261.27C 317.36 264.39 317.67 269.13 320.79 271.86C 323.91 274.58 328.65 274.27 331.37 271.15zM324.6 265.22L201.14 406.39L203.4 408.37L326.86 267.2z" stroke="none" fill="#000000" fill-rule="nonzero" /><path id="191" transform="matrix(1 0 0 -1 0 780)" d="M171.54 426.66C 171.54 433.75 177.26 439.5 184.32 439.5C 191.38 439.5 197.1 433.75 197.1 426.66C 197.1 419.57 191.38 413.82 184.32 413.82C 177.26 413.82 171.54 419.57 171.54 426.66z" stroke="none" fill="#4472C4" fill-rule="evenodd" fill-opacity="0.3882353" /><path id="192" transform="matrix(1 0 0 -1 0 780)" d="M171.54 426.66C 171.54 433.75 177.26 439.5 184.32 439.5C 191.38 439.5 197.1 433.75 197.1 426.66C 197.1 419.57 191.38 413.82 184.32 413.82C 177.26 413.82 171.54 419.57 171.54 426.66z" stroke="#FFFFFF" stroke-width="2.28" stroke-dasharray="1,1" fill="none" /><path id="193" transform="matrix(1 0 0 -1 0 780)" d="M456.18 428.4C 456.18 435.46 461.9 441.18 468.96 441.18C 476.02 441.18 481.74 435.46 481.74 428.4C 481.74 421.34 476.02 415.62 468.96 415.62C 461.9 415.62 456.18 421.34 456.18 428.4z" stroke="none" fill="#4472C4" fill-rule="evenodd" fill-opacity="0.3882353" /><path id="194" transform="matrix(1 0 0 -1 0 780)" d="M456.18 428.4C 456.18 435.46 461.9 441.18 468.96 441.18C 476.02 441.18 481.74 435.46 481.74 428.4C 481.74 421.34 476.02 415.62 468.96 415.62C 461.9 415.62 456.18 421.34 456.18 428.4z" stroke="#FFFFFF" stroke-width="2.28" stroke-dasharray="1,1" fill="none" /><path id="195" transform="matrix(1 0 0 -1 0 780)" d="M470.65 398.94L468.92 415.62L456.61 404.22zM405.48 268.41C 404.02 264.54 405.98 260.21 409.86 258.75C 413.73 257.29 418.06 259.25 419.52 263.13C 420.98 267 419.02 271.33 415.14 272.79C 411.27 274.25 406.94 272.29 405.48 268.41zM413.9 265.24L465.57 402.46L462.76 403.51L411.1 266.3z" stroke="none" fill="#000000" fill-rule="nonzero" /><g clip-path="url(#64)"><path id="196" transform="matrix(1 0 0 -1 0 780)" d="M270.93 582.68C 269.26 590.62 274.34 598.42 282.29 600.09L282.29 600.09L339.82 612.22C 347.76 613.89 355.56 608.81 357.23 600.87L357.23 600.87L370.75 536.71C 372.43 528.77 367.34 520.97 359.4 519.3L359.4 519.3L301.87 507.18C 293.92 505.5 286.13 510.58 284.45 518.53z" stroke="none" fill="#DAE3F3" fill-rule="evenodd" fill-opacity="0.5764706" /></g><g clip-path="url(#65)"><path id="197" transform="matrix(1 0 0 -1 0 780)" d="M270.93 582.68C 269.26 590.62 274.34 598.42 282.29 600.09L282.29 600.09L339.82 612.22C 347.76 613.89 355.56 608.81 357.23 600.87L357.23 600.87L370.75 536.71C 372.43 528.77 367.34 520.97 359.4 519.3L359.4 519.3L301.87 507.18C 293.92 505.5 286.13 510.58 284.45 518.53z" stroke="#7030A0" stroke-width="1" fill="none" /></g><g clip-path="url(#66)"><path id="198" transform="matrix(1 0 0 -1 0 780)" d="M331.98 566.19C 332.38 566.44 332.55 566.74 332.48 567.09C 332.41 567.42 332.14 567.62 331.67 567.71C 331.2 567.79 330.59 567.75 329.86 567.59C 329.1 567.43 328.52 567.22 328.14 566.96C 327.75 566.7 327.59 566.41 327.66 566.08C 327.74 565.72 328 565.51 328.46 565.44C 328.91 565.37 329.52 565.41 330.28 565.57C 331.01 565.73 331.58 565.93 331.98 566.19zM333.97 567.39C 334.1 566.78 333.88 566.21 333.31 565.71C 332.74 565.2 331.8 564.81 330.5 564.54C 329.19 564.27 328.18 564.24 327.45 564.48C 326.73 564.71 326.3 565.13 326.17 565.75C 326.04 566.36 326.27 566.92 326.84 567.43C 327.41 567.94 328.34 568.33 329.64 568.6C 330.94 568.88 331.95 568.89 332.68 568.66C 333.41 568.43 333.84 568 333.97 567.39zM334.36 570.27L324.67 568.23L324.67 568.23L324.43 569.35L324.43 569.35L328.57 570.22L328.57 570.22L328.32 571.38L328.32 571.38L325.72 570.83C 325.59 570.8 325.5 570.81 325.45 570.85C 325.4 570.88 325.36 570.97 325.33 571.09L325.33 571.09L324.74 573.9C 324.71 574.02 324.72 574.1 324.76 574.16C 324.79 574.23 324.87 574.27 325 574.3L325 574.3L331.95 575.76L331.95 575.76L332.18 574.65L332.18 574.65L326.25 573.4L326.25 573.4L326.52 572.15L326.52 572.15L332.55 573.42L332.55 573.42L332.78 572.32L332.78 572.32L329.73 571.68L329.73 571.68L329.98 570.51L329.98 570.51L334.12 571.39zM318.41 570.52C 318.59 570.71 318.65 570.96 318.59 571.25C 318.53 571.53 318.38 571.73 318.14 571.84C 317.9 571.96 317.54 571.96 317.07 571.87C 316.63 571.77 316.32 571.62 316.15 571.43C 315.98 571.23 315.92 570.98 315.98 570.7C 316.04 570.41 316.19 570.2 316.43 570.1C 316.66 569.99 317 569.99 317.45 570.08C 317.93 570.18 318.25 570.33 318.41 570.52zM319.9 571.53C 320.03 570.94 319.89 570.42 319.5 569.97C 319.1 569.52 318.49 569.21 317.67 569.04C 317.27 568.95 316.9 568.92 316.56 568.95C 316.22 568.97 315.92 569.05 315.65 569.17C 315.39 569.29 315.17 569.46 315 569.67C 314.83 569.88 314.72 570.13 314.65 570.42C 314.54 570.99 314.67 571.51 315.06 571.98C 315.45 572.46 316.05 572.78 316.85 572.95C 317.67 573.12 318.35 573.07 318.9 572.79C 319.45 572.51 319.78 572.09 319.9 571.53zM324.63 563.72L317.59 562.24C 317.47 562.21 317.38 562.22 317.33 562.25C 317.27 562.29 317.23 562.37 317.21 562.5L317.21 562.5L316.68 564.99L316.68 564.99L318.04 565.28L318.04 565.28L318.4 563.59L318.4 563.59L324.39 564.85zM321.7 568.46C 321.27 568.28 320.74 568.11 320.13 567.94C 319.52 567.77 318.87 567.6 318.19 567.44L318.19 567.44L318.54 565.76L318.54 565.76L317.22 565.48L317.22 565.48L316.87 567.14L316.87 567.14L314.66 566.67L314.66 566.67L314.43 567.75L314.43 567.75L317.47 568.39C 317.67 568.43 317.94 568.5 318.29 568.58C 318.63 568.67 319 568.76 319.4 568.87C 319.79 568.99 320.17 569.1 320.54 569.22C 320.92 569.33 321.23 569.44 321.47 569.54zM323.95 565.93L322.63 565.65L322.4 566.7L320.1 566.21L319.89 567.23L322.19 567.72L320.93 573.71L322.25 573.99zM313.4 565.48L312.09 565.2L311.46 568.17L309.51 567.76L309.28 568.86L311.23 569.27L310.74 571.57L312.06 571.85zM309.96 565.24C 309.39 565.37 308.86 565.56 308.36 565.79C 307.87 566.03 307.48 566.31 307.19 566.64C 307.11 566.23 306.88 565.78 306.5 565.3C 306.12 564.81 305.69 564.36 305.2 563.96L305.2 563.96L304.03 564.63C 304.83 565.15 305.41 565.74 305.76 566.4C 306.11 567.05 306.21 567.74 306.06 568.45L306.06 568.45L305.95 568.93L305.95 568.93L304.06 568.54L304.06 568.54L303.83 569.64L303.83 569.64L309.06 570.74L309.06 570.74L309.29 569.64L309.29 569.64L307.38 569.23L307.38 569.23L307.48 568.74C 307.55 568.4 307.68 568.09 307.86 567.81C 308.04 567.54 308.26 567.3 308.54 567.1C 308.81 566.9 309.11 566.74 309.46 566.62C 309.8 566.49 310.18 566.41 310.58 566.38zM312.17 562.13C 312.35 562.27 312.49 562.43 312.57 562.6C 312.65 562.76 312.67 562.94 312.64 563.12C 312.56 563.49 312.29 563.74 311.83 563.84C 311.38 563.95 310.79 563.93 310.08 563.78C 309.74 563.71 309.43 563.62 309.16 563.51C 308.89 563.4 308.66 563.27 308.48 563.13C 308.3 562.98 308.16 562.83 308.08 562.66C 308 562.5 307.97 562.32 308.01 562.14C 308.09 561.78 308.36 561.53 308.84 561.41C 309.32 561.28 309.9 561.29 310.58 561.43C 311.27 561.58 311.8 561.81 312.17 562.13zM313.98 562.38C 313.84 562.07 313.63 561.78 313.35 561.53C 313.06 561.27 312.69 561.04 312.25 560.85C 311.81 560.66 311.32 560.51 310.78 560.4C 310.24 560.28 309.74 560.23 309.26 560.22C 308.79 560.22 308.37 560.28 308 560.4C 307.62 560.52 307.31 560.69 307.07 560.93C 306.83 561.16 306.67 561.46 306.59 561.82C 306.52 562.17 306.55 562.5 306.69 562.81C 306.82 563.13 307.04 563.41 307.33 563.68C 307.63 563.94 307.99 564.17 308.43 564.36C 308.86 564.56 309.34 564.72 309.86 564.83C 310.4 564.94 310.91 564.99 311.38 564.99C 311.86 564.98 312.29 564.92 312.66 564.8C 313.03 564.69 313.34 564.51 313.59 564.28C 313.84 564.04 314 563.75 314.07 563.4C 314.15 563.03 314.12 562.69 313.98 562.38z" stroke="none" fill="#000000" fill-rule="nonzero" /></g><g clip-path="url(#67)"><path id="199" transform="matrix(1 0 0 -1 0 780)" d="M332.87 551.77L323.16 549.72L322.93 550.84L327.09 551.72L326.61 554L327.98 554.28L328.46 552.01L332.64 552.89zM330.98 554.63C 330.56 554.68 330.14 554.76 329.74 554.88C 329.34 555.01 328.95 555.15 328.57 555.33C 328.2 555.51 327.86 555.72 327.55 555.95C 327.23 556.18 326.97 556.44 326.75 556.71C 326.56 555.98 326.2 555.31 325.68 554.72C 325.16 554.13 324.51 553.59 323.75 553.1L323.75 553.1L322.61 553.89C 323.13 554.17 323.59 554.49 323.99 554.85C 324.4 555.21 324.74 555.6 325.02 556.03C 325.29 556.44 325.47 556.86 325.58 557.32C 325.68 557.77 325.69 558.22 325.59 558.66L325.59 558.66L325.4 559.57L325.4 559.57L326.84 559.87L326.84 559.87L327.03 558.96C 327.11 558.53 327.29 558.13 327.58 557.75C 327.86 557.37 328.22 557.04 328.64 556.77C 329.07 556.48 329.54 556.25 330.05 556.08C 330.56 555.9 331.09 555.8 331.63 555.78zM321.7 548.12L320.34 547.83L320.34 547.83L319.83 550.24L319.83 550.24L313.79 548.96L313.79 548.96L313.56 550.08L313.56 550.08L316.6 550.72L316.6 550.72L316.34 551.93L316.34 551.93L312.22 551.06L312.22 551.06L311.99 552.18L311.99 552.18L321.67 554.22L321.67 554.22L321.91 553.1L321.91 553.1L317.72 552.22L317.72 552.22L317.97 551.01L317.97 551.01L320.63 551.57C 320.85 551.62 320.98 551.53 321.02 551.31zM320.32 554.52C 319.95 554.53 319.57 554.57 319.18 554.64C 318.79 554.7 318.41 554.79 318.05 554.91C 317.68 555.03 317.34 555.17 317.03 555.34C 316.72 555.5 316.47 555.69 316.27 555.91C 316.15 555.63 315.99 555.35 315.79 555.07C 315.58 554.79 315.33 554.53 315.04 554.27C 314.77 554.02 314.46 553.79 314.13 553.57C 313.79 553.36 313.45 553.16 313.09 553L313.09 553L312.06 553.76C 312.55 553.99 313 554.24 313.42 554.52C 313.83 554.8 314.19 555.09 314.47 555.4C 314.76 555.7 314.97 556.02 315.1 556.35C 315.24 556.69 315.27 557.03 315.2 557.38L315.2 557.38L315.11 557.78L315.11 557.78L316.57 558.08L316.57 558.08L316.65 557.69C 316.72 557.31 316.91 556.99 317.21 556.72C 317.51 556.46 317.87 556.25 318.28 556.09C 318.7 555.93 319.15 555.81 319.61 555.73C 320.08 555.66 320.52 555.63 320.95 555.64z" stroke="none" fill="#000000" fill-rule="nonzero" /></g><path id="200" transform="matrix(1 0 0 -1 0 780)" d="M369.12 446.8C 369.12 448.63 370.61 450.12 372.44 450.12L372.44 450.12L424.48 450.12C 426.31 450.12 427.8 448.63 427.8 446.8L427.8 446.8L427.8 433.52C 427.8 431.69 426.31 430.2 424.48 430.2L424.48 430.2L372.44 430.2C 370.61 430.2 369.12 431.69 369.12 433.52z" stroke="none" fill="#DAE3F3" fill-rule="evenodd" fill-opacity="0.5764706" /><path id="201" transform="matrix(1 0 0 -1 0 780)" d="M369.12 446.8C 369.12 448.63 370.61 450.12 372.44 450.12L372.44 450.12L424.48 450.12C 426.31 450.12 427.8 448.63 427.8 446.8L427.8 446.8L427.8 433.52C 427.8 431.69 426.31 430.2 424.48 430.2L424.48 430.2L372.44 430.2C 370.61 430.2 369.12 431.69 369.12 433.52z" stroke="#7030A0" stroke-width="0.96" fill="none" /><g clip-path="url(#68)"></g><g clip-path="url(#69)"><path id="204" transform="matrix(1 0 0 -1 0 780)" d="M80.733 463.28C 80.11 465.01 81.002 466.91 82.726 467.53L82.726 467.53L131.59 485.2C 133.31 485.83 135.21 484.93 135.84 483.21L135.84 483.21L140.35 470.73C 140.97 469 140.08 467.1 138.36 466.48L138.36 466.48L89.498 448.81C 87.774 448.18 85.871 449.07 85.248 450.8z" stroke="none" fill="#DAE3F3" fill-rule="evenodd" fill-opacity="0.5764706" /></g><g clip-path="url(#70)"><path id="205" transform="matrix(1 0 0 -1 0 780)" d="M80.733 463.28C 80.11 465.01 81.002 466.91 82.726 467.53L82.726 467.53L131.59 485.2C 133.31 485.83 135.21 484.93 135.84 483.21L135.84 483.21L140.35 470.73C 140.97 469 140.08 467.1 138.36 466.48L138.36 466.48L89.498 448.81C 87.774 448.18 85.871 449.07 85.248 450.8z" stroke="#7030A0" stroke-width="1" fill="none" /></g><g clip-path="url(#71)"><path id="206" transform="matrix(1 0 0 -1 0 780)" d="M125.95 469.49L116.61 466.11L116.23 467.18L125.56 470.56zM123.95 471.57L117.25 469.15C 117.13 469.11 117.04 469.1 116.98 469.13C 116.93 469.16 116.88 469.24 116.83 469.36L116.83 469.36L114.91 474.66C 114.87 474.77 114.87 474.86 114.89 474.93C 114.92 474.99 115 475.05 115.12 475.09L115.12 475.09L121.68 477.46L121.68 477.46L122.07 476.39L122.07 476.39L116.48 474.37L116.48 474.37L116.98 473L116.98 473L122.53 475L122.53 475L122.92 473.94L122.92 473.94L117.37 471.94L117.37 471.94L117.86 470.58L117.86 470.58L123.57 472.65zM115.68 464.56L108.65 462.02C 108.53 461.98 108.44 461.97 108.38 462C 108.33 462.03 108.28 462.11 108.23 462.23L108.23 462.23L107.41 464.51L107.41 464.51L108.72 464.98L108.72 464.98L109.26 463.47L109.26 463.47L115.29 465.65zM115.34 468.09L106.03 464.72L106.03 464.72L105.66 465.75L105.66 465.75L109.57 467.16L109.57 467.16L109.25 468.06L109.25 468.06L106.81 467.17C 106.69 467.13 106.6 467.12 106.54 467.15C 106.48 467.18 106.43 467.26 106.38 467.38L106.38 467.38L105.61 469.51C 105.57 469.62 105.56 469.71 105.59 469.78C 105.62 469.84 105.69 469.9 105.81 469.94L105.81 469.94L111.08 471.84L111.08 471.84L110.79 472.66L110.79 472.66L105.2 470.64L105.2 470.64L104.84 471.63L104.84 471.63L111.47 474.03C 111.68 474.1 111.82 474.03 111.9 473.82L111.9 473.82L112.67 471.69C 112.71 471.57 112.72 471.48 112.69 471.42C 112.65 471.35 112.58 471.3 112.47 471.26L112.47 471.26L107.16 469.34L107.16 469.34L107.46 468.53L107.46 468.53L113.25 470.62L113.25 470.62L113.61 469.63L113.61 469.63L110.63 468.55L110.63 468.55L110.95 467.66L110.95 467.66L114.97 469.11zM106.32 462.36L96.986 458.99L96.599 460.06L105.93 463.44zM104.45 465.08L96.657 462.26L96.265 463.35L97.608 463.83L96.414 467.06L95.32 466.67L94.932 467.74L102.28 470.4L102.67 469.32L101.55 468.92L102.69 465.67L104.06 466.17zM101.42 465.21L100.27 468.46L97.701 467.53L98.895 464.3z" stroke="none" fill="#000000" fill-rule="nonzero" /></g><path id="207" transform="matrix(1 0 0 -1 0 780)" d="M30 687.6L505.68 687.6L505.68 687.6L505.68 743.28L505.68 743.28L30 743.28z" stroke="#FFFFFF" stroke-width="0.72" fill="none" /><g clip-path="url(#72)"></g><g clip-path="url(#73)"></g><g clip-path="url(#74)"></g><g clip-path="url(#75)"></g><g clip-path="url(#76)"><path id="220" transform="matrix(1 0 0 -1 0 780)" d="M184.03 397.86C 184.6 400.98 187.6 403.05 190.72 402.47L190.72 402.47L266.15 388.61C 269.28 388.04 271.34 385.04 270.77 381.92L270.77 381.92L266.61 359.3C 266.04 356.17 263.04 354.11 259.92 354.68L259.92 354.68L184.49 368.54C 181.36 369.12 179.3 372.11 179.87 375.24z" stroke="none" fill="#DAE3F3" fill-rule="evenodd" fill-opacity="0.5764706" /></g><g clip-path="url(#77)"><path id="221" transform="matrix(1 0 0 -1 0 780)" d="M184.03 397.86C 184.6 400.98 187.6 403.05 190.72 402.47L190.72 402.47L266.15 388.61C 269.28 388.04 271.34 385.04 270.77 381.92L270.77 381.92L266.61 359.3C 266.04 356.17 263.04 354.11 259.92 354.68L259.92 354.68L184.49 368.54C 181.36 369.12 179.3 372.11 179.87 375.24z" stroke="#7030A0" stroke-width="1" fill="none" /></g><g clip-path="url(#78)"><path id="222" transform="matrix(1 0 0 -1 0 780)" d="M236.07 380.95L226.31 382.74L226.52 383.87L236.28 382.08zM235.38 384.15C 235.02 384.33 234.68 384.57 234.34 384.85C 234 385.12 233.69 385.42 233.4 385.74C 233.12 386.06 232.88 386.39 232.68 386.73C 232.47 387.07 232.33 387.39 232.25 387.7C 231.8 387.12 231.23 386.64 230.55 386.26C 229.86 385.88 229.05 385.62 228.11 385.47L228.11 385.47L227.36 386.65C 227.93 386.7 228.48 386.82 228.99 387C 229.51 387.18 229.97 387.4 230.37 387.68C 230.79 387.97 231.13 388.3 231.4 388.67C 231.66 389.04 231.84 389.45 231.92 389.91L231.92 389.91L232.1 390.89L232.1 390.89L233.54 390.62L233.54 390.62L233.36 389.64C 233.27 389.19 233.3 388.73 233.43 388.27C 233.57 387.81 233.79 387.37 234.08 386.95C 234.37 386.53 234.71 386.15 235.12 385.8C 235.53 385.45 235.96 385.17 236.42 384.96zM224.74 381.69L223.39 381.93L223.39 381.93L224.47 387.81L224.47 387.81L222.7 388.14L222.7 388.14L222.15 385.11C 222.13 384.99 222.08 384.91 222.02 384.87C 221.96 384.83 221.88 384.82 221.76 384.84L221.76 384.84L217.44 385.64C 217.31 385.66 217.23 385.7 217.2 385.76C 217.16 385.81 217.16 385.9 217.18 386.03L217.18 386.03L218.5 393.23L218.5 393.23L219.81 392.99L219.81 392.99L219.35 390.45L219.35 390.45L221.68 390.02L221.68 390.02L222.15 392.56L222.15 392.56L223.47 392.31L223.47 392.31L222.92 389.32L222.92 389.32L224.69 388.99L224.69 388.99L225.34 392.5L225.34 392.5L226.68 392.25zM220.97 386.15L221.47 388.87L219.14 389.3L218.64 386.58z" stroke="none" fill="#000000" fill-rule="nonzero" /></g><g clip-path="url(#79)"><path id="223" transform="matrix(1 0 0 -1 0 780)" d="M210.84 374.49L201.1 376.28L201.31 377.4L211.04 375.61zM209.92 376.49C 209.59 376.64 209.25 376.82 208.91 377.01C 208.57 377.21 208.25 377.42 207.96 377.66C 207.66 377.89 207.39 378.14 207.17 378.39C 206.94 378.65 206.78 378.92 206.68 379.2C 206.47 378.98 206.21 378.78 205.92 378.62C 205.62 378.45 205.29 378.31 204.93 378.2C 204.59 378.09 204.22 378.01 203.83 377.95C 203.44 377.88 203.05 377.84 202.65 377.83L202.65 377.83L201.99 378.92C 202.53 378.95 203.05 379 203.53 379.09C 204.02 379.17 204.45 379.3 204.83 379.46C 205.21 379.62 205.53 379.82 205.77 380.06C 206.02 380.31 206.18 380.61 206.24 380.96L206.24 380.96L206.32 381.36L206.32 381.36L207.78 381.09L207.78 381.09L207.71 380.69C 207.63 380.32 207.68 379.95 207.86 379.61C 208.04 379.26 208.29 378.95 208.62 378.66C 208.95 378.36 209.32 378.1 209.73 377.86C 210.13 377.63 210.53 377.44 210.92 377.28zM207.06 371.44C 207.53 371.54 207.8 371.76 207.86 372.11C 207.92 372.44 207.75 372.74 207.35 373.01C 206.95 373.28 206.38 373.48 205.64 373.62C 204.88 373.76 204.26 373.77 203.8 373.66C 203.35 373.55 203.09 373.33 203.02 373C 202.96 372.65 203.12 372.34 203.52 372.09C 203.91 371.83 204.49 371.63 205.25 371.49C 205.95 371.36 206.55 371.35 207.06 371.44zM209.36 371.82C 209.25 371.2 208.82 370.76 208.1 370.49C 207.37 370.23 206.36 370.22 205.06 370.45C 203.76 370.69 202.82 371.07 202.23 371.57C 201.64 372.08 201.41 372.64 201.52 373.26C 201.64 373.88 202.06 374.32 202.8 374.58C 203.54 374.85 204.55 374.87 205.83 374.63C 207.1 374.4 208.04 374.02 208.63 373.51C 209.23 373 209.47 372.44 209.36 371.82z" stroke="none" fill="#000000" fill-rule="nonzero" /></g><g clip-path="url(#80)"><path id="224" transform="matrix(1 0 0 -1 0 780)" d="M211.55 369.21L210.14 369.47L216.23 379.98L217.58 379.73z" stroke="none" fill="#000000" fill-rule="nonzero" /></g><g clip-path="url(#81)"><path id="225" transform="matrix(1 0 0 -1 0 780)" d="M239.65 366.34C 239.58 365.99 239.75 365.67 240.16 365.38C 240.55 365.09 241.09 364.88 241.77 364.76C 242.48 364.63 243.07 364.63 243.55 364.75C 244.02 364.88 244.29 365.12 244.36 365.48C 244.42 365.83 244.25 366.15 243.85 366.42C 243.45 366.7 242.9 366.9 242.19 367.03C 241.84 367.1 241.53 367.13 241.23 367.13C 240.94 367.13 240.68 367.1 240.46 367.05C 240.23 366.99 240.05 366.9 239.91 366.78C 239.77 366.66 239.68 366.52 239.65 366.34zM239.52 364.45C 239.35 364.54 239.18 364.65 239.02 364.8C 238.72 365.04 238.5 365.31 238.36 365.6C 238.22 365.9 238.19 366.22 238.25 366.58C 238.31 366.91 238.47 367.2 238.71 367.43C 238.95 367.66 239.26 367.84 239.63 367.96C 240 368.08 240.42 368.15 240.9 368.17C 241.37 368.18 241.87 368.14 242.39 368.05C 242.93 367.95 243.42 367.81 243.86 367.62C 244.3 367.44 244.67 367.23 244.98 366.99C 245.28 366.74 245.5 366.46 245.64 366.16C 245.78 365.85 245.82 365.53 245.76 365.2C 245.69 364.84 245.54 364.55 245.3 364.32C 245.07 364.09 244.76 363.92 244.39 363.8C 244.02 363.68 243.59 363.62 243.12 363.61C 242.64 363.61 242.13 363.65 241.59 363.75C 241.05 363.85 240.55 363.99 240.12 364.17C 240.01 364.21 239.91 364.25 239.81 364.29C 239.71 364.34 239.62 364.39 239.52 364.45zM245.88 367.44L244.53 367.69L245.71 374.11L247.06 373.86L246.63 371.53L247.97 371.28L247.77 370.16L246.42 370.41zM242.96 368.59C 242.76 368.72 242.55 368.89 242.34 369.08C 242.13 369.26 241.93 369.46 241.74 369.67C 241.55 369.87 241.38 370.09 241.24 370.3C 241.09 370.52 240.99 370.73 240.93 370.93C 240.66 370.54 240.27 370.2 239.75 369.91C 239.23 369.62 238.67 369.39 238.08 369.21L238.08 369.21L237.25 370.27C 238.17 370.45 238.92 370.78 239.5 371.26C 240.09 371.73 240.44 372.33 240.57 373.04L240.57 373.04L240.65 373.43L240.65 373.43L238.75 373.78L238.75 373.78L238.95 374.89L238.95 374.89L244.2 373.92L244.2 373.92L244 372.82L244 372.82L242.07 373.17L242.07 373.17L242 372.76C 241.88 372.09 241.98 371.47 242.3 370.89C 242.63 370.32 243.18 369.82 243.97 369.39zM234.74 365.21L233.42 365.45L235.36 376.01L236.68 375.77L235.94 371.71L237.38 371.45L237.15 370.23L235.71 370.49zM232.81 375.21L229.54 375.81L229.74 376.9L233.01 376.3zM232.16 367.91C 231.67 368.39 231.27 368.88 230.97 369.36C 230.66 369.84 230.45 370.33 230.33 370.81C 230.03 370.36 229.63 369.93 229.14 369.55C 228.65 369.16 228.07 368.82 227.41 368.53L227.41 368.53L226.49 369.64C 228.53 370.35 229.71 371.54 230.02 373.21L230.02 373.21L230.1 373.65L230.1 373.65L227.92 374.05L227.92 374.05L228.13 375.18L228.13 375.18L233.9 374.12L233.9 374.12L233.7 372.99L233.7 372.99L231.54 373.38L231.54 373.38L231.46 372.95C 231.38 372.6 231.37 372.22 231.42 371.83C 231.46 371.44 231.56 371.05 231.72 370.66C 231.86 370.26 232.07 369.89 232.33 369.55C 232.58 369.2 232.9 368.91 233.27 368.66zM224.46 367.11L223.14 367.35L225.08 377.9L226.4 377.66L225.63 373.46L227.07 373.19L226.85 371.98L225.41 372.24zM219.72 371.04C 220.15 370.96 220.52 371.03 220.82 371.25C 221.12 371.48 221.31 371.8 221.39 372.22C 221.46 372.62 221.4 372.99 221.2 373.31C 221 373.63 220.68 373.83 220.25 373.91C 219.8 373.99 219.43 373.92 219.13 373.69C 218.84 373.46 218.66 373.14 218.58 372.74C 218.5 372.31 218.56 371.95 218.76 371.63C 218.95 371.32 219.27 371.12 219.72 371.04zM222.36 370.97C 222.17 370.67 221.94 370.44 221.65 370.26C 221.37 370.08 221.04 369.95 220.67 369.89C 220.31 369.83 219.92 369.83 219.51 369.91C 219.09 369.99 218.72 370.12 218.4 370.31C 218.09 370.5 217.83 370.73 217.64 371C 217.44 371.27 217.3 371.58 217.22 371.92C 217.15 372.25 217.14 372.61 217.21 372.99C 217.28 373.35 217.4 373.68 217.59 373.97C 217.77 374.26 218.01 374.5 218.29 374.68C 218.58 374.87 218.9 374.99 219.27 375.06C 219.64 375.13 220.03 375.12 220.46 375.04C 220.88 374.96 221.25 374.83 221.57 374.64C 221.88 374.45 222.14 374.21 222.34 373.94C 222.54 373.67 222.68 373.36 222.75 373.02C 222.82 372.68 222.83 372.33 222.76 371.97C 222.69 371.59 222.56 371.26 222.36 370.97zM223.62 375.04L217.45 376.17L217.66 377.3L223.82 376.17zM222.53 377.1L219.24 377.71L219.44 378.79L222.73 378.19z" stroke="none" fill="#000000" fill-rule="nonzero" /></g><path id="226" transform="matrix(1 0 0 -1 0 780)" d="M257.46 471.36C 257.46 483.12 267 492.66 278.76 492.66C 290.52 492.66 300.06 483.12 300.06 471.36C 300.06 459.6 290.52 450.06 278.76 450.06C 267 450.06 257.46 459.6 257.46 471.36z" stroke="none" fill="#4472C4" fill-rule="evenodd" fill-opacity="0.3882353" /><path id="227" transform="matrix(1 0 0 -1 0 780)" d="M257.46 471.36C 257.46 483.12 267 492.66 278.76 492.66C 290.52 492.66 300.06 483.12 300.06 471.36C 300.06 459.6 290.52 450.06 278.76 450.06C 267 450.06 257.46 459.6 257.46 471.36z" stroke="#FFFFFF" stroke-width="2.28" stroke-dasharray="1,1" fill="none" /><path id="228" transform="matrix(1 0 0 -1 0 780)" d="M362.7 483.24C 362.7 495 372.21 504.54 383.94 504.54C 395.67 504.54 405.18 495 405.18 483.24C 405.18 471.48 395.67 461.94 383.94 461.94C 372.21 461.94 362.7 471.48 362.7 483.24z" stroke="none" fill="#4472C4" fill-rule="evenodd" fill-opacity="0.3882353" /><path id="229" transform="matrix(1 0 0 -1 0 780)" d="M362.7 483.24C 362.7 495 372.21 504.54 383.94 504.54C 395.67 504.54 405.18 495 405.18 483.24C 405.18 471.48 395.67 461.94 383.94 461.94C 372.21 461.94 362.7 471.48 362.7 483.24z" stroke="#FFFFFF" stroke-width="2.28" stroke-dasharray="1,1" fill="none" /><path id="230" transform="matrix(1 0 0 -1 0 780)" d="M190.38 501.24C 190.38 513 199.92 522.54 211.68 522.54C 223.44 522.54 232.98 513 232.98 501.24C 232.98 489.48 223.44 479.94 211.68 479.94C 199.92 479.94 190.38 489.48 190.38 501.24z" stroke="none" fill="#4472C4" fill-rule="evenodd" fill-opacity="0.3882353" /><path id="231" transform="matrix(1 0 0 -1 0 780)" d="M190.38 501.24C 190.38 513 199.92 522.54 211.68 522.54C 223.44 522.54 232.98 513 232.98 501.24C 232.98 489.48 223.44 479.94 211.68 479.94C 199.92 479.94 190.38 489.48 190.38 501.24z" stroke="#FFFFFF" stroke-width="2.28" stroke-dasharray="1,1" fill="none" /><path id="232" transform="matrix(1 0 0 -1 0 780)" d="M104.46 493.2C 104.46 504.96 113.97 514.5 125.7 514.5C 137.43 514.5 146.94 504.96 146.94 493.2C 146.94 481.44 137.43 471.9 125.7 471.9C 113.97 471.9 104.46 481.44 104.46 493.2z" stroke="none" fill="#4472C4" fill-rule="evenodd" fill-opacity="0.3882353" /><path id="233" transform="matrix(1 0 0 -1 0 780)" d="M104.46 493.2C 104.46 504.96 113.97 514.5 125.7 514.5C 137.43 514.5 146.94 504.96 146.94 493.2C 146.94 481.44 137.43 471.9 125.7 471.9C 113.97 471.9 104.46 481.44 104.46 493.2z" stroke="#FFFFFF" stroke-width="2.28" stroke-dasharray="1,1" fill="none" /><g clip-path="url(#82)"></g><g clip-path="url(#83)"></g><g clip-path="url(#84)"></g><g clip-path="url(#85)"></g><g clip-path="url(#86)"></g><g clip-path="url(#87)"></g><g clip-path="url(#88)"></g><g clip-path="url(#89)"></g><g clip-path="url(#90)"></g><g clip-path="url(#91)"></g><g clip-path="url(#92)"></g><g clip-path="url(#93)"></g><g clip-path="url(#94)"></g></g></g></svg>